<svg xmlns="http://www.w3.org/2000/svg" xmlns:xlink="http://www.w3.org/1999/xlink" width="500" zoomAndPan="magnify" viewBox="0 0 375 374.999991" height="500" preserveAspectRatio="xMidYMid meet" version="1.0"><defs><g/><clipPath id="8efddcc933"><path d="M 43.648438 43.648438 L 331.351562 43.648438 L 331.351562 331.351562 L 43.648438 331.351562 Z M 43.648438 43.648438 " clip-rule="nonzero"/></clipPath><clipPath id="ec38e84a4b"><path d="M 187.5 43.648438 C 108.054688 43.648438 43.648438 108.054688 43.648438 187.5 C 43.648438 266.945312 108.054688 331.351562 187.5 331.351562 C 266.945312 331.351562 331.351562 266.945312 331.351562 187.5 C 331.351562 108.054688 266.945312 43.648438 187.5 43.648438 " clip-rule="nonzero"/></clipPath><clipPath id="85ceccc849"><path d="M 28.960938 28.960938 L 346.039062 28.960938 L 346.039062 346.039062 L 28.960938 346.039062 Z M 28.960938 28.960938 " clip-rule="nonzero"/></clipPath><clipPath id="ae9bea0f8c"><path d="M 187.5 28.960938 C 275.058594 28.960938 346.039062 99.941406 346.039062 187.5 C 346.039062 275.058594 275.058594 346.039062 187.5 346.039062 C 99.941406 346.039062 28.960938 275.058594 28.960938 187.5 C 28.960938 99.941406 99.941406 28.960938 187.5 28.960938 L 187.5 63.839844 C 119.203125 63.839844 63.839844 119.203125 63.839844 187.5 C 63.839844 255.796875 119.203125 311.160156 187.5 311.160156 C 255.796875 311.160156 311.160156 255.796875 311.160156 187.5 C 311.160156 119.203125 255.796875 63.839844 187.5 63.839844 L 187.5 28.960938 " clip-rule="nonzero"/></clipPath><clipPath id="8cf3ac1996"><path d="M 187 30 L 342 30 L 342 171 L 187 171 Z M 187 30 " clip-rule="nonzero"/></clipPath><clipPath id="f971b21d9b"><path d="M 207.09375 30.175781 C 271.828125 38.238281 325.015625 85.128906 341.125 148.34375 C 342.664062 154.378906 340.867188 160.777344 336.40625 165.128906 C 331.949219 169.480469 325.507812 171.125 319.507812 169.4375 C 313.511719 167.753906 308.867188 162.996094 307.328125 156.957031 C 294.761719 107.652344 253.277344 71.078125 202.785156 64.789062 C 196.601562 64.019531 191.300781 60.007812 188.875 54.269531 C 186.449219 48.527344 187.273438 41.933594 191.03125 36.964844 C 194.789062 31.992188 200.910156 29.40625 207.09375 30.175781 " clip-rule="nonzero"/></clipPath><clipPath id="c9d20a9972"><path d="M 226 112.5 L 255 112.5 L 255 160 L 226 160 Z M 226 112.5 " clip-rule="nonzero"/></clipPath><clipPath id="50c6057850"><path d="M 112.5 231 L 262.5 231 L 262.5 262.5 L 112.5 262.5 Z M 112.5 231 " clip-rule="nonzero"/></clipPath><clipPath id="3e1fee99f2"><path d="M 112.5 231 L 262.5 231 L 262.5 250 L 112.5 250 Z M 112.5 231 " clip-rule="nonzero"/></clipPath><clipPath id="6bb7c8265d"><path d="M 112.5 174 L 262.5 174 L 262.5 237 L 112.5 237 Z M 112.5 174 " clip-rule="nonzero"/></clipPath><clipPath id="3437cde126"><path d="M 143 112.5 L 237 112.5 L 237 175 L 143 175 Z M 143 112.5 " clip-rule="nonzero"/></clipPath><clipPath id="2bb3787a67"><path d="M 246 125 L 262.5 125 L 262.5 160 L 246 160 Z M 246 125 " clip-rule="nonzero"/></clipPath><clipPath id="4110008ae0"><path d="M 174 236 L 201 236 L 201 262.5 L 174 262.5 Z M 174 236 " clip-rule="nonzero"/></clipPath></defs><rect x="-37.5" width="450" fill="#ffffff" y="-37.499999" height="449.999989" fill-opacity="1"/><rect x="-37.5" width="450" fill="#ffffff" y="-37.499999" height="449.999989" fill-opacity="1"/><rect x="-37.5" width="450" fill="#000000" y="-37.499999" height="449.999989" fill-opacity="1"/><g clip-path="url(#8efddcc933)"><g clip-path="url(#ec38e84a4b)"><path fill="#ffffff" d="M 43.648438 43.648438 L 331.351562 43.648438 L 331.351562 331.351562 L 43.648438 331.351562 Z M 43.648438 43.648438 " fill-opacity="1" fill-rule="nonzero"/></g></g><g fill="#ffffff" fill-opacity="1"><g transform="translate(113.33909, 215.405725)"><g><path d="M 3.234375 -2.453125 C 3.234375 -5.421875 3.554688 -7.804688 4.203125 -9.609375 C 4.847656 -11.421875 5.953125 -13.109375 7.515625 -14.671875 C 9.085938 -16.242188 11.585938 -18.28125 15.015625 -20.78125 L 20.921875 -25.0625 C 23.097656 -26.65625 24.867188 -28.125 26.234375 -29.46875 C 27.609375 -30.820312 28.691406 -32.285156 29.484375 -33.859375 C 30.285156 -35.441406 30.6875 -37.210938 30.6875 -39.171875 C 30.6875 -42.347656 29.84375 -44.742188 28.15625 -46.359375 C 26.46875 -47.972656 23.820312 -48.78125 20.21875 -48.78125 C 17.382812 -48.78125 14.863281 -48.117188 12.65625 -46.796875 C 10.457031 -45.472656 8.695312 -43.601562 7.375 -41.1875 L 6.53125 -41.03125 L 2.75 -45 C 4.5625 -47.9375 6.941406 -50.242188 9.890625 -51.921875 C 12.835938 -53.597656 16.28125 -54.4375 20.21875 -54.4375 C 24.039062 -54.4375 27.210938 -53.785156 29.734375 -52.484375 C 32.253906 -51.191406 34.113281 -49.398438 35.3125 -47.109375 C 36.507812 -44.816406 37.109375 -42.171875 37.109375 -39.171875 C 37.109375 -36.765625 36.601562 -34.519531 35.59375 -32.4375 C 34.59375 -30.363281 33.175781 -28.410156 31.34375 -26.578125 C 29.507812 -24.742188 27.210938 -22.8125 24.453125 -20.78125 L 18.46875 -16.40625 C 16.238281 -14.769531 14.523438 -13.375 13.328125 -12.21875 C 12.128906 -11.070312 11.253906 -9.953125 10.703125 -8.859375 C 10.148438 -7.773438 9.875 -6.5625 9.875 -5.21875 L 37.109375 -5.21875 L 37.109375 0 L 3.234375 0 Z M 3.234375 -2.453125 "/></g></g></g><g fill="#ffffff" fill-opacity="1"><g transform="translate(154.589328, 215.405725)"><g><path d="M 21.25 0.765625 C 16.039062 0.765625 11.90625 -0.40625 8.84375 -2.75 C 5.78125 -5.101562 3.800781 -8.359375 2.90625 -12.515625 L 7.59375 -14.640625 L 8.4375 -14.5 C 9.375 -11.289062 10.8125 -8.890625 12.75 -7.296875 C 14.695312 -5.710938 17.53125 -4.921875 21.25 -4.921875 C 25.039062 -4.921875 27.925781 -5.785156 29.90625 -7.515625 C 31.894531 -9.253906 32.890625 -11.816406 32.890625 -15.203125 C 32.890625 -18.503906 31.878906 -21.019531 29.859375 -22.75 C 27.835938 -24.488281 24.660156 -25.359375 20.328125 -25.359375 L 14.5 -25.359375 L 14.5 -30.578125 L 19.703125 -30.578125 C 23.085938 -30.578125 25.773438 -31.414062 27.765625 -33.09375 C 29.765625 -34.769531 30.765625 -37.132812 30.765625 -40.1875 C 30.765625 -43.101562 29.898438 -45.285156 28.171875 -46.734375 C 26.441406 -48.191406 24.023438 -48.921875 20.921875 -48.921875 C 15.515625 -48.921875 11.660156 -46.769531 9.359375 -42.46875 L 8.515625 -42.328125 L 4.984375 -46.171875 C 6.429688 -48.640625 8.515625 -50.632812 11.234375 -52.15625 C 13.953125 -53.675781 17.179688 -54.4375 20.921875 -54.4375 C 24.347656 -54.4375 27.265625 -53.898438 29.671875 -52.828125 C 32.085938 -51.765625 33.914062 -50.226562 35.15625 -48.21875 C 36.40625 -46.21875 37.03125 -43.820312 37.03125 -41.03125 C 37.03125 -38.394531 36.265625 -36.078125 34.734375 -34.078125 C 33.210938 -32.085938 31.191406 -30.515625 28.671875 -29.359375 L 28.671875 -28.59375 C 32.210938 -27.738281 34.875 -26.140625 36.65625 -23.796875 C 38.445312 -21.460938 39.34375 -18.597656 39.34375 -15.203125 C 39.34375 -10.109375 37.828125 -6.171875 34.796875 -3.390625 C 31.765625 -0.617188 27.25 0.765625 21.25 0.765625 Z M 21.25 0.765625 "/></g></g></g><g fill="#ffffff" fill-opacity="1"><g transform="translate(198.188333, 215.405725)"><g><path d="M 15.265625 -24.515625 C 12.847656 -24.515625 10.726562 -25.050781 8.90625 -26.125 C 7.082031 -27.207031 5.65625 -28.859375 4.625 -31.078125 C 3.59375 -33.304688 3.078125 -36.113281 3.078125 -39.5 C 3.078125 -44.488281 4.175781 -48.222656 6.375 -50.703125 C 8.582031 -53.191406 11.546875 -54.4375 15.265625 -54.4375 C 17.660156 -54.4375 19.765625 -53.898438 21.578125 -52.828125 C 23.390625 -51.765625 24.804688 -50.117188 25.828125 -47.890625 C 26.859375 -45.671875 27.375 -42.875 27.375 -39.5 C 27.375 -36.113281 26.859375 -33.304688 25.828125 -31.078125 C 24.804688 -28.859375 23.390625 -27.207031 21.578125 -26.125 C 19.765625 -25.050781 17.660156 -24.515625 15.265625 -24.515625 Z M 16.484375 0 L 11.125 0 L 10.96875 -0.765625 L 46.828125 -53.65625 L 52.234375 -53.65625 L 52.375 -52.890625 Z M 15.265625 -29.140625 C 17.566406 -29.140625 19.265625 -29.925781 20.359375 -31.5 C 21.460938 -33.082031 22.015625 -35.75 22.015625 -39.5 C 22.015625 -43.238281 21.460938 -45.894531 20.359375 -47.46875 C 19.265625 -49.050781 17.566406 -49.84375 15.265625 -49.84375 C 13.703125 -49.84375 12.425781 -49.507812 11.4375 -48.84375 C 10.445312 -48.1875 9.695312 -47.097656 9.1875 -45.578125 C 8.6875 -44.066406 8.4375 -42.039062 8.4375 -39.5 C 8.4375 -36.945312 8.6875 -34.910156 9.1875 -33.390625 C 9.695312 -31.878906 10.445312 -30.789062 11.4375 -30.125 C 12.425781 -29.46875 13.703125 -29.140625 15.265625 -29.140625 Z M 48.234375 0.765625 C 44.515625 0.765625 41.550781 -0.472656 39.34375 -2.953125 C 37.144531 -5.441406 36.046875 -9.179688 36.046875 -14.171875 C 36.046875 -19.179688 37.144531 -22.925781 39.34375 -25.40625 C 41.550781 -27.894531 44.515625 -29.140625 48.234375 -29.140625 C 50.628906 -29.140625 52.734375 -28.609375 54.546875 -27.546875 C 56.359375 -26.484375 57.773438 -24.832031 58.796875 -22.59375 C 59.828125 -20.351562 60.34375 -17.546875 60.34375 -14.171875 C 60.34375 -10.796875 59.828125 -7.992188 58.796875 -5.765625 C 57.773438 -3.535156 56.359375 -1.890625 54.546875 -0.828125 C 52.734375 0.234375 50.628906 0.765625 48.234375 0.765625 Z M 48.234375 -3.8125 C 50.535156 -3.8125 52.234375 -4.597656 53.328125 -6.171875 C 54.429688 -7.753906 54.984375 -10.421875 54.984375 -14.171875 C 54.984375 -17.910156 54.429688 -20.566406 53.328125 -22.140625 C 52.234375 -23.722656 50.535156 -24.515625 48.234375 -24.515625 C 45.910156 -24.515625 44.191406 -23.734375 43.078125 -22.171875 C 41.960938 -20.609375 41.40625 -17.941406 41.40625 -14.171875 C 41.40625 -10.398438 41.960938 -7.726562 43.078125 -6.15625 C 44.191406 -4.59375 45.910156 -3.8125 48.234375 -3.8125 Z M 48.234375 -3.8125 "/></g></g></g><g clip-path="url(#85ceccc849)"><g clip-path="url(#ae9bea0f8c)"><path fill="#6ce5e8" d="M 28.960938 28.960938 L 346.039062 28.960938 L 346.039062 346.039062 L 28.960938 346.039062 Z M 28.960938 28.960938 " fill-opacity="1" fill-rule="nonzero"/></g></g><g clip-path="url(#8cf3ac1996)"><g clip-path="url(#f971b21d9b)"><path fill="#41b8d5" d="M 28.960938 28.960938 L 346.039062 28.960938 L 346.039062 346.039062 L 28.960938 346.039062 Z M 28.960938 28.960938 " fill-opacity="1" fill-rule="nonzero"/></g></g><g clip-path="url(#c9d20a9972)"><path fill="#7950ea" d="M 236.636719 112.5 C 230.921875 112.5 226.292969 117.132812 226.292969 122.84375 L 226.292969 159.050781 L 254.742188 159.050781 C 250.457031 159.050781 246.984375 155.578125 246.984375 151.292969 L 246.984375 122.84375 C 246.984375 117.132812 242.351562 112.5 236.636719 112.5 " fill-opacity="1" fill-rule="nonzero"/></g><g clip-path="url(#50c6057850)"><path fill="#f9cb58" d="M 112.5 231.464844 L 112.5 257.328125 C 112.5 260.183594 114.816406 262.5 117.671875 262.5 L 257.328125 262.5 C 260.183594 262.5 262.5 260.183594 262.5 257.328125 L 262.5 231.464844 L 112.5 231.464844 " fill-opacity="1" fill-rule="nonzero"/></g><g clip-path="url(#3e1fee99f2)"><path fill="#e9ae48" d="M 112.5 231.464844 L 112.5 244.398438 C 112.5 247.253906 114.816406 249.570312 117.671875 249.570312 L 257.328125 249.570312 C 260.183594 249.570312 262.5 247.253906 262.5 244.398438 L 262.5 231.464844 L 112.5 231.464844 " fill-opacity="1" fill-rule="nonzero"/></g><g clip-path="url(#6bb7c8265d)"><path fill="#f9cb58" d="M 117.671875 236.636719 C 114.816406 236.636719 112.5 234.320312 112.5 231.464844 L 112.5 179.742188 C 112.5 176.886719 114.816406 174.570312 117.671875 174.570312 L 257.328125 174.570312 C 260.183594 174.570312 262.5 176.886719 262.5 179.742188 L 262.5 231.464844 C 262.5 234.320312 260.183594 236.636719 257.328125 236.636719 L 117.671875 236.636719 " fill-opacity="1" fill-rule="nonzero"/></g><path fill="#e9ae48" d="M 251.832031 192.671875 C 247.726562 192.671875 244.398438 189.34375 244.398438 185.238281 L 244.398438 184.914062 L 130.601562 184.914062 C 130.601562 189.199219 127.128906 192.671875 122.84375 192.671875 L 122.84375 218.535156 L 123.167969 218.535156 C 127.273438 218.535156 130.601562 221.863281 130.601562 225.96875 L 130.601562 226.292969 L 244.398438 226.292969 L 244.398438 225.96875 C 244.398438 221.863281 247.726562 218.535156 251.832031 218.535156 L 252.15625 218.535156 L 252.15625 192.671875 L 251.832031 192.671875 " fill-opacity="1" fill-rule="nonzero"/><path fill="#ce913a" d="M 151.292969 208.191406 L 138.363281 208.191406 L 138.363281 203.015625 L 151.292969 203.015625 L 151.292969 208.191406 " fill-opacity="1" fill-rule="nonzero"/><path fill="#ce913a" d="M 236.636719 208.191406 L 223.707031 208.191406 L 223.707031 203.015625 L 236.636719 203.015625 L 236.636719 208.191406 " fill-opacity="1" fill-rule="nonzero"/><path fill="#7950ea" d="M 166.808594 205.601562 C 166.808594 194.175781 176.074219 184.914062 187.5 184.914062 C 198.925781 184.914062 208.191406 194.175781 208.191406 205.601562 C 208.191406 217.03125 198.925781 226.292969 187.5 226.292969 C 176.074219 226.292969 166.808594 217.03125 166.808594 205.601562 " fill-opacity="1" fill-rule="nonzero"/><path fill="#f4f4f4" d="M 199.671875 203.773438 L 187.5 191.601562 L 175.328125 203.773438 L 178.984375 207.433594 L 184.914062 201.5 L 184.914062 218.535156 L 190.085938 218.535156 L 190.085938 201.5 L 196.015625 207.433594 L 199.671875 203.773438 " fill-opacity="1" fill-rule="nonzero"/><g clip-path="url(#3437cde126)"><path fill="#998cf9" d="M 153.878906 112.5 C 148.167969 112.5 143.535156 117.132812 143.535156 122.84375 L 143.535156 174.570312 L 226.292969 174.570312 L 226.292969 122.84375 C 226.292969 117.132812 230.925781 112.5 236.636719 112.5 L 153.878906 112.5 " fill-opacity="1" fill-rule="nonzero"/></g><g clip-path="url(#2bb3787a67)"><path fill="#998cf9" d="M 257.328125 125.429688 L 246.984375 125.429688 L 246.984375 151.292969 C 246.984375 155.578125 250.457031 159.050781 254.742188 159.050781 C 259.027344 159.050781 262.5 155.578125 262.5 151.292969 L 262.5 130.601562 C 262.5 127.746094 260.183594 125.429688 257.328125 125.429688 " fill-opacity="1" fill-rule="nonzero"/></g><path fill="#8061f2" d="M 203.015625 128.015625 L 153.878906 128.015625 L 153.878906 122.84375 L 203.015625 122.84375 L 203.015625 128.015625 " fill-opacity="1" fill-rule="nonzero"/><path fill="#8061f2" d="M 215.949219 128.015625 L 208.191406 128.015625 L 208.191406 122.84375 L 215.949219 122.84375 L 215.949219 128.015625 " fill-opacity="1" fill-rule="nonzero"/><path fill="#8061f2" d="M 203.015625 140.949219 L 153.878906 140.949219 L 153.878906 135.777344 L 203.015625 135.777344 L 203.015625 140.949219 " fill-opacity="1" fill-rule="nonzero"/><path fill="#8061f2" d="M 215.949219 140.949219 L 208.191406 140.949219 L 208.191406 135.777344 L 215.949219 135.777344 L 215.949219 140.949219 " fill-opacity="1" fill-rule="nonzero"/><path fill="#8061f2" d="M 203.015625 153.878906 L 153.878906 153.878906 L 153.878906 148.707031 L 203.015625 148.707031 L 203.015625 153.878906 " fill-opacity="1" fill-rule="nonzero"/><path fill="#8061f2" d="M 215.949219 153.878906 L 208.191406 153.878906 L 208.191406 148.707031 L 215.949219 148.707031 L 215.949219 153.878906 " fill-opacity="1" fill-rule="nonzero"/><path fill="#8061f2" d="M 203.015625 166.808594 L 153.878906 166.808594 L 153.878906 161.636719 L 203.015625 161.636719 L 203.015625 166.808594 " fill-opacity="1" fill-rule="nonzero"/><path fill="#8061f2" d="M 215.949219 166.808594 L 208.191406 166.808594 L 208.191406 161.636719 L 215.949219 161.636719 L 215.949219 166.808594 " fill-opacity="1" fill-rule="nonzero"/><g clip-path="url(#4110008ae0)"><path fill="#ffe5b6" d="M 174.570312 236.636719 L 174.570312 262.5 L 200.429688 262.5 L 200.429688 236.636719 L 174.570312 236.636719 " fill-opacity="1" fill-rule="nonzero"/></g></svg>