<svg xmlns="http://www.w3.org/2000/svg" xmlns:xlink="http://www.w3.org/1999/xlink" width="500" zoomAndPan="magnify" viewBox="0 0 375 374.999991" height="500" preserveAspectRatio="xMidYMid meet" version="1.0"><defs><clipPath id="a27397f3d5"><path d="M 43.648438 43.648438 L 331.351562 43.648438 L 331.351562 331.351562 L 43.648438 331.351562 Z M 43.648438 43.648438 " clip-rule="nonzero"/></clipPath><clipPath id="173cd12459"><path d="M 187.5 43.648438 C 108.054688 43.648438 43.648438 108.054688 43.648438 187.5 C 43.648438 266.945312 108.054688 331.351562 187.5 331.351562 C 266.945312 331.351562 331.351562 266.945312 331.351562 187.5 C 331.351562 108.054688 266.945312 43.648438 187.5 43.648438 " clip-rule="nonzero"/></clipPath><clipPath id="9eaa46a27c"><path d="M 129.460938 108.449219 L 244 108.449219 L 244 256 L 129.460938 256 Z M 129.460938 108.449219 " clip-rule="nonzero"/></clipPath><clipPath id="45259265d1"><path d="M 210 108.449219 L 243 108.449219 L 243 143 L 210 143 Z M 210 108.449219 " clip-rule="nonzero"/></clipPath><clipPath id="933bc667c3"><path d="M 28.960938 28.960938 L 346.039062 28.960938 L 346.039062 346.039062 L 28.960938 346.039062 Z M 28.960938 28.960938 " clip-rule="nonzero"/></clipPath><clipPath id="257861f376"><path d="M 187.5 28.960938 C 275.058594 28.960938 346.039062 99.941406 346.039062 187.5 C 346.039062 275.058594 275.058594 346.039062 187.5 346.039062 C 99.941406 346.039062 28.960938 275.058594 28.960938 187.5 C 28.960938 99.941406 99.941406 28.960938 187.5 28.960938 L 187.5 63.839844 C 119.203125 63.839844 63.839844 119.203125 63.839844 187.5 C 63.839844 255.796875 119.203125 311.160156 187.5 311.160156 C 255.796875 311.160156 311.160156 255.796875 311.160156 187.5 C 311.160156 119.203125 255.796875 63.839844 187.5 63.839844 L 187.5 28.960938 " clip-rule="nonzero"/></clipPath><clipPath id="093ece6635"><path d="M 28 30 L 347 30 L 347 347 L 28 347 Z M 28 30 " clip-rule="nonzero"/></clipPath><clipPath id="d975d44dc4"><path d="M 207.09375 30.175781 C 291.492188 40.6875 352.558594 115.921875 345.492188 200.675781 C 338.421875 285.425781 265.738281 349.507812 180.769531 345.894531 C 95.796875 342.285156 28.8125 272.269531 28.960938 187.222656 C 28.972656 180.992188 32.304688 175.242188 37.707031 172.136719 C 43.109375 169.027344 49.757812 169.039062 55.148438 172.164062 C 60.535156 175.289062 63.851562 181.054688 63.839844 187.285156 C 63.722656 253.621094 115.972656 308.230469 182.25 311.046875 C 248.527344 313.867188 305.21875 263.882812 310.734375 197.777344 C 316.246094 131.667969 268.613281 72.988281 202.785156 64.789062 C 196.601562 64.019531 191.300781 60.007812 188.875 54.269531 C 186.449219 48.527344 187.273438 41.933594 191.03125 36.964844 C 194.789062 31.992188 200.910156 29.40625 207.09375 30.175781 " clip-rule="nonzero"/></clipPath></defs><g clip-path="url(#a27397f3d5)"><g clip-path="url(#173cd12459)"><path fill="#ffffff" d="M 43.648438 43.648438 L 331.351562 43.648438 L 331.351562 331.351562 L 43.648438 331.351562 Z M 43.648438 43.648438 " fill-opacity="1" fill-rule="nonzero"/></g></g><g clip-path="url(#9eaa46a27c)"><path fill="#9af165" d="M 133.734375 108.871094 L 210.144531 108.449219 L 243.273438 142.515625 L 242.949219 251.382812 C 242.949219 253.652344 241.105469 255.507812 238.84375 255.507812 L 133.734375 255.507812 C 131.480469 255.507812 129.628906 253.652344 129.628906 251.382812 L 129.628906 112.988281 C 129.628906 110.726562 131.480469 108.871094 133.734375 108.871094 " fill-opacity="1" fill-rule="nonzero"/></g><path fill="#ffffff" d="M 166.824219 158.6875 L 145.585938 158.6875 L 145.585938 137.40625 L 166.824219 137.40625 L 166.824219 158.6875 " fill-opacity="1" fill-rule="nonzero"/><path fill="#ffffff" d="M 166.824219 198.703125 L 145.585938 198.703125 L 145.585938 177.417969 L 166.824219 177.417969 L 166.824219 198.703125 " fill-opacity="1" fill-rule="nonzero"/><path fill="#ffffff" d="M 166.824219 238.722656 L 145.585938 238.722656 L 145.585938 217.441406 L 166.824219 217.441406 L 166.824219 238.722656 " fill-opacity="1" fill-rule="nonzero"/><path fill="#0f6f0a" d="M 228.828125 222.550781 L 173.617188 222.550781 L 173.617188 217.441406 L 228.828125 217.441406 L 228.828125 222.550781 " fill-opacity="1" fill-rule="nonzero"/><path fill="#0f6f0a" d="M 228.828125 232.765625 L 173.617188 232.765625 L 173.617188 227.660156 L 228.828125 227.660156 L 228.828125 232.765625 " fill-opacity="1" fill-rule="nonzero"/><path fill="#0f6f0a" d="M 227.984375 182.53125 L 172.765625 182.53125 L 172.765625 177.417969 L 227.984375 177.417969 L 227.984375 182.53125 " fill-opacity="1" fill-rule="nonzero"/><path fill="#0f6f0a" d="M 227.984375 192.75 L 172.765625 192.75 L 172.765625 187.640625 L 227.984375 187.640625 L 227.984375 192.75 " fill-opacity="1" fill-rule="nonzero"/><path fill="#0f6f0a" d="M 226.285156 142.515625 L 171.066406 142.515625 L 171.066406 137.40625 L 226.285156 137.40625 L 226.285156 142.515625 " fill-opacity="1" fill-rule="nonzero"/><path fill="#0f6f0a" d="M 226.285156 152.730469 L 171.066406 152.730469 L 171.066406 147.621094 L 226.285156 147.621094 L 226.285156 152.730469 " fill-opacity="1" fill-rule="nonzero"/><g clip-path="url(#45259265d1)"><path fill="#b8f885" d="M 210.113281 108.871094 L 242.949219 142.515625 L 215.730469 142.515625 C 212.703125 142.515625 210.238281 140.050781 210.230469 137.011719 L 210.113281 108.871094 " fill-opacity="1" fill-rule="nonzero"/></g><path fill="#4ec726" d="M 266.859375 229.796875 L 261.667969 226.796875 L 264.910156 222.46875 C 266.136719 220.847656 265.699219 218.265625 263.285156 217.296875 L 257.707031 216.613281 L 259.164062 211.15625 C 259.164062 208.558594 256.949219 207.195312 254.992188 207.71875 L 249.777344 209.121094 L 248.9375 203.160156 C 247.925781 200.769531 245.347656 200.375 243.753906 201.625 L 239.792969 204.722656 L 236.984375 199.851562 C 235.148438 198.003906 232.613281 198.597656 231.597656 200.367188 L 228.894531 205.054688 L 224.113281 201.441406 C 221.703125 200.457031 219.601562 202.003906 219.351562 204.023438 L 218.742188 209.019531 L 213.316406 207.566406 C 210.714844 207.558594 209.347656 209.785156 209.871094 211.746094 L 211.261719 216.976562 L 205.328125 217.8125 C 202.9375 218.824219 202.535156 221.40625 203.792969 223.011719 L 206.882812 226.980469 L 202.019531 229.796875 C 200.175781 231.636719 200.773438 234.179688 202.535156 235.195312 L 207.214844 237.898438 L 203.597656 242.703125 C 202.625 245.113281 204.160156 247.21875 206.183594 247.46875 L 211.164062 248.082031 L 209.707031 253.539062 C 209.707031 255.765625 211.34375 257.089844 213.042969 257.089844 C 213.324219 257.089844 213.605469 257.050781 213.886719 256.976562 L 219.105469 255.582031 L 219.941406 261.535156 C 220.8125 263.585938 222.824219 264.167969 224.394531 263.503906 C 224.652344 263.390625 224.890625 263.246094 225.125 263.070312 L 229.085938 259.972656 L 231.894531 264.84375 C 233.722656 266.691406 236.269531 266.085938 237.28125 264.328125 L 239.980469 259.648438 L 244.769531 263.261719 C 247.175781 264.238281 249.277344 262.691406 249.527344 260.671875 L 250.140625 255.667969 L 254.992188 256.976562 C 255.265625 257.050781 255.558594 257.089844 255.832031 257.089844 C 256.691406 257.089844 257.539062 256.75 258.15625 256.128906 C 258.988281 255.296875 259.308594 254.078125 259.011719 252.949219 L 257.609375 247.722656 L 262.964844 246.960938 C 263.246094 246.929688 263.519531 246.847656 263.777344 246.734375 C 264.574219 246.40625 265.21875 245.761719 265.539062 244.945312 C 265.984375 243.855469 265.804688 242.613281 265.089844 241.683594 L 261.988281 237.714844 L 266.34375 235.195312 C 268.101562 234.179688 268.703125 231.636719 266.859375 229.796875 " fill-opacity="1" fill-rule="nonzero"/><path stroke-linecap="round" transform="matrix(0.080506, 0, 0, -0.0806986, 27.652678, 358.778237)" fill="none" stroke-linejoin="round" d="M 2382.195192 1538.190062 L 2535.813473 1410.206135 L 2753.285721 1717.290111 " stroke="#ffffff" stroke-width="63.98" stroke-opacity="1" stroke-miterlimit="10"/><g clip-path="url(#933bc667c3)"><g clip-path="url(#257861f376)"><path fill="#6ce5e8" d="M 28.960938 28.960938 L 346.039062 28.960938 L 346.039062 346.039062 L 28.960938 346.039062 Z M 28.960938 28.960938 " fill-opacity="1" fill-rule="nonzero"/></g></g><g clip-path="url(#093ece6635)"><g clip-path="url(#d975d44dc4)"><path fill="#41b8d5" d="M 28.960938 28.960938 L 346.039062 28.960938 L 346.039062 346.039062 L 28.960938 346.039062 Z M 28.960938 28.960938 " fill-opacity="1" fill-rule="nonzero"/></g></g></svg>